<svg width="70" height="70" viewBox="0 0 70 70" fill="none" xmlns="http://www.w3.org/2000/svg">
<rect x="69" y="69" width="68" height="68" rx="34" transform="rotate(-180 69 69)" stroke="#FDFDFD" stroke-width="2"/>
<path d="M23.1897 30.0471C23.0223 29.8797 22.9386 29.6872 22.9386 29.4695C22.9386 29.2519 23.0223 29.0594 23.1897 28.892L24.4453 27.6364C24.6127 27.469 24.8052 27.3853 25.0229 27.3853C25.2405 27.3853 25.433 27.469 25.6004 27.6364L35.4693 37.5052L45.3382 27.6364C45.5056 27.469 45.6981 27.3853 45.9157 27.3853C46.1334 27.3853 46.3259 27.469 46.4933 27.6364L47.7489 28.892C47.9163 29.0594 48 29.2519 48 29.4695C48 29.6872 47.9163 29.8797 47.7489 30.0471L36.0469 41.7491C35.8795 41.9165 35.6869 42.0002 35.4693 42.0002C35.2517 42.0002 35.0592 41.9165 34.8917 41.7491L23.1897 30.0471Z" fill="#FDFDFD"/>
</svg>
