<svg width="21" height="20" viewBox="0 0 21 20" fill="none" xmlns="http://www.w3.org/2000/svg">
<path d="M5.43911 5.995L7.83911 1.995M12.6391 1.995L15.0391 5.995M8.03651 17.995H12.4417C13.9369 17.995 14.6845 17.995 15.2973 17.7272C15.8376 17.4911 16.3021 17.1102 16.6397 16.6267C17.0225 16.0783 17.1691 15.3452 17.4623 13.8791L17.8143 12.1191C18.2341 10.0199 18.4441 8.97028 18.1599 8.1488C17.9106 7.42831 17.4123 6.82047 16.7547 6.43476C16.0049 5.995 14.9345 5.995 12.7937 5.995H7.68451C5.54369 5.995 4.47327 5.995 3.72351 6.43476C3.0659 6.82047 2.56759 7.42831 2.31834 8.1488C2.03416 8.97028 2.24408 10.0199 2.66394 12.1191L3.01594 13.8791C3.30916 15.3452 3.45577 16.0783 3.83854 16.6267C4.17607 17.1102 4.64066 17.4911 5.18101 17.7272C5.79376 17.995 6.54135 17.995 8.03651 17.995Z" stroke="#FDFDFD" stroke-width="0.8" stroke-linecap="round" stroke-linejoin="round"/>
</svg>
